<?xml version="1.0" encoding="UTF-8"?>
<svg id="Ebene_2" data-name="Ebene 2" xmlns="http://www.w3.org/2000/svg" xmlns:xlink="http://www.w3.org/1999/xlink" viewBox="0 0 985 189.77">
  <defs>
    <style>
      .cls-1 {
        fill: url(#linear-gradient-2);
      }

      .cls-2 {
        fill: #233357;
      }

      .cls-3 {
        fill: url(#linear-gradient);
      }
    </style>
    <linearGradient id="linear-gradient" x1="0" y1="37.68" x2="162.7" y2="37.68" gradientUnits="userSpaceOnUse">
      <stop offset="0" stop-color="#304d70"/>
      <stop offset=".03" stop-color="#2f4b6e"/>
      <stop offset=".6" stop-color="#26395d"/>
      <stop offset="1" stop-color="#233357"/>
    </linearGradient>
    <linearGradient id="linear-gradient-2" x1="0" y1="131.85" x2="162.7" y2="131.85" gradientUnits="userSpaceOnUse">
      <stop offset="0" stop-color="#f2b138"/>
      <stop offset=".33" stop-color="#f1ad37"/>
      <stop offset=".64" stop-color="#f0a134"/>
      <stop offset=".94" stop-color="#ef8e2f"/>
      <stop offset="1" stop-color="#ef8a2e"/>
    </linearGradient>
  </defs>
  <g id="Layer_1" data-name="Layer 1">
    <g>
      <path class="cls-2" d="m271.66,45.08v16.42h-43.2v20.59h37.61v15.29h-37.61v36.54h-19.34V45.08h62.54Z"/>
      <path class="cls-2" d="m341.88,69.48v64.44h-16.78v-9.16c-5.08,7.3-12.16,10.95-21.24,10.95-7.93,0-13.92-2.58-17.97-7.74-2.9-3.65-4.34-9.54-4.34-17.67v-40.82h17.61v35.58c0,3.69.12,6.33.36,7.91.24,1.59.69,2.92,1.37,3.99,1.82,2.9,4.98,4.34,9.46,4.34,5.59,0,9.62-2.4,12.08-7.2,1.23-2.34,1.84-6.56,1.84-12.67v-31.95h17.61Z"/>
      <path class="cls-2" d="m374.25,69.48v8.99c2.82-3.77,5.93-6.51,9.34-8.21,3.41-1.7,7.46-2.56,12.14-2.56,4.09,0,7.76.78,11.01,2.35,3.25,1.57,5.75,3.74,7.5,6.52,1.31,2.06,2.21,4.32,2.71,6.78.5,2.46.74,5.81.74,10.06v40.52h-17.61v-37.01c0-4.17-.38-7.22-1.13-9.16-.67-1.75-1.9-3.12-3.69-4.14-1.79-1.01-3.87-1.52-6.25-1.52-2.7,0-5.14.63-7.32,1.9-2.18,1.27-3.79,3-4.82,5.18-1.19,2.46-1.79,6.27-1.79,11.42v33.32h-17.61v-64.44h16.78Z"/>
      <path class="cls-2" d="m494.74,45.08v88.84h-16.78v-8.21c-4.21,6.66-10.71,10-19.52,10-9.52,0-16.94-3.51-22.25-10.53-4.64-6.11-6.96-14.02-6.96-23.74,0-10.91,2.92-19.46,8.75-25.65,5.08-5.4,11.58-8.09,19.52-8.09,8.85,0,15.39,3.25,19.64,9.76v-32.37h17.61Zm-32.43,36.42c-5.12,0-9.04,1.98-11.78,5.95-2.34,3.41-3.51,8.01-3.51,13.81,0,6.71,1.55,11.84,4.64,15.41,2.66,3.09,6.23,4.64,10.71,4.64,5.2,0,9.16-1.98,11.9-5.95,2.34-3.45,3.51-8.09,3.51-13.92,0-6.66-1.55-11.76-4.64-15.29-2.74-3.09-6.35-4.64-10.83-4.64Z"/>
      <path class="cls-2" d="m569.66,113.93c-1.83,7.1-5.75,12.64-11.78,16.6-5.28,3.45-11.41,5.18-18.39,5.18-10.59,0-18.94-3.49-25.05-10.47-5.28-6.03-7.91-13.75-7.91-23.15,0-10.63,3.45-19.24,10.35-25.82,5.99-5.67,13.33-8.51,22.02-8.51,10.23,0,18.29,3.71,24.16,11.13,5.08,6.43,7.62,14.68,7.62,24.75v2.68h-46.18c.2,5.79,1.75,10.12,4.64,12.97,2.58,2.5,6.07,3.75,10.47,3.75,3.25,0,5.91-.71,7.97-2.14,2.06-1.43,3.77-3.75,5.12-6.96h16.96Zm-16.96-18.92c-.52-4.96-2.12-8.71-4.82-11.25-2.34-2.22-5.34-3.33-8.99-3.33-4.21,0-7.62,1.49-10.23,4.46-2.26,2.58-3.63,5.95-4.11,10.12h28.15Z"/>
      <path class="cls-2" d="m623.81,68.41v16.3c-2.94-.52-5.24-.77-6.9-.77-6.55,0-11.37,2.68-14.46,8.03-1.75,2.97-2.62,7.97-2.62,14.99v26.96h-17.61v-64.44h16.78v11.9c4.64-8.85,11.58-13.27,20.83-13.27,1.11,0,2.44.1,3.99.3Z"/>
      <path class="cls-2" d="m705.09,45.08v88.84h-12.97l-31.66-47.9c-8.05-12.18-13.39-21.01-16.01-26.48.48,5.99.73,15.83.77,29.51l.06,44.87h-11.25V45.08h12.73l33.14,50.58c6.66,10.16,11.58,18.25,14.76,24.28-.44-10.27-.67-20.41-.71-30.41l-.12-44.45h11.25Z"/>
      <path class="cls-2" d="m779.89,125.41v8.27c-2.46.87-4.94,1.31-7.44,1.31-2.9,0-5.15-.83-6.75-2.5-1.61-1.67-2.43-4.03-2.47-7.08-5.99,6.94-13.75,10.41-23.27,10.41-6.82,0-12.08-1.86-15.77-5.59-3.25-3.21-4.88-7.46-4.88-12.73,0-8.45,4.05-14.3,12.14-17.55,2.06-.83,4.01-1.42,5.83-1.76,1.82-.34,6.49-.96,13.98-1.87,4.28-.52,7.24-1.39,8.87-2.62,1.63-1.23,2.44-3.21,2.44-5.95,0-7.5-4.84-11.25-14.52-11.25-5.4,0-9.34,1.19-11.84,3.57-2.18,2.06-3.51,5.28-3.99,9.64h-10.35c.16-7.42,2.94-13.07,8.33-16.96,4.68-3.41,10.89-5.12,18.62-5.12,9.04,0,15.77,2.12,20.17,6.37,1.59,1.55,2.71,3.45,3.36,5.71.65,2.26.98,5.44.98,9.52,0,8.81-.14,17.63-.42,26.48-.04,1.67-.06,2.98-.06,3.93,0,2.38.32,4.06.95,5.03.63.97,1.71,1.46,3.21,1.46.87,0,1.82-.24,2.86-.71Zm-17.14-24.87c-1.51,1.07-3.08,1.83-4.73,2.29-1.65.46-4.81.96-9.49,1.52-6.23.79-10.53,1.81-12.91,3.03-3.61,1.87-5.41,4.94-5.41,9.22,0,3.61,1.29,6.41,3.87,8.39,2.26,1.71,5.24,2.56,8.93,2.56s6.94-.77,10.12-2.32c3.17-1.55,5.69-3.65,7.56-6.31.83-1.15,1.39-2.32,1.67-3.51.28-1.19.42-2.96.42-5.3v-9.58Z"/>
      <path class="cls-2" d="m816.48,69.48v8.69h-12.79v38.08c0,4.24.43,6.95,1.28,8.12.85,1.17,2.81,1.76,5.86,1.76,1.82,0,3.71-.26,5.65-.77v9.1c-2.62.36-5.32.53-8.09.53-6.86,0-11.35-1.69-13.45-5.06-.83-1.35-1.35-3.06-1.55-5.15-.2-2.08-.3-6.91-.3-14.49v-32.13h-10.83v-8.69h10.83v-19.04h10.59v19.04h12.79Z"/>
      <path class="cls-2" d="m840.23,45.08v12.97h-10.59v-12.97h10.59Zm0,24.4v64.44h-10.59v-64.44h10.59Z"/>
      <path class="cls-2" d="m886.1,67.63c10.23,0,18.15,3.45,23.74,10.35,4.88,5.99,7.32,13.86,7.32,23.62,0,11.39-3.09,20.13-9.28,26.24-5.36,5.28-12.52,7.91-21.48,7.91-10.39,0-18.45-3.47-24.16-10.41-4.96-6.07-7.44-13.98-7.44-23.74,0-11.07,3.21-19.7,9.64-25.88,5.59-5.39,12.81-8.09,21.66-8.09Zm0,8.87c-6.66,0-11.86,2.56-15.59,7.68-3.25,4.48-4.88,10.29-4.88,17.44,0,8.41,2.08,14.88,6.25,19.4,3.61,3.93,8.41,5.89,14.4,5.89,6.66,0,11.78-2.56,15.35-7.68,3.13-4.48,4.7-10.37,4.7-17.67,0-8.21-2.06-14.6-6.19-19.16-3.57-3.93-8.25-5.89-14.04-5.89Z"/>
      <path class="cls-2" d="m941.5,69.48v10.06c1.9-2.74,3.65-4.8,5.24-6.19,4.56-3.85,10.25-5.77,17.08-5.77,4.24,0,7.99.82,11.25,2.47,3.25,1.65,5.67,3.96,7.26,6.93,1.03,1.87,1.74,3.88,2.11,6.04.38,2.16.57,5.25.57,9.25v41.65h-10.59v-37.9c0-4.28-.15-7.39-.45-9.31-.3-1.92-.86-3.54-1.7-4.85-2.34-3.57-6.25-5.36-11.72-5.36-3.65,0-6.91.87-9.79,2.62-2.88,1.75-4.99,4.13-6.34,7.14-1.47,3.33-2.2,8.83-2.2,16.48v31.18h-10.59v-64.44h9.88Z"/>
    </g>
    <path class="cls-3" d="m162.7,0v48.23c-4.98,3.97-10.16,7.03-15.44,9.38-40.69,18.03-89.03-6.25-130.27,8.81-5.82,2.1-11.5,5-17,8.94.59-7.64,2.19-15.01,4.62-21.9,2.62-7.39,6.16-14.28,10.55-20.48,4.4-6.27,9.63-11.85,15.5-16.53C43.58,6.13,59.6,0,76.93,0h85.77Z"/>
    <path class="cls-1" d="m162.7,73.93l-.02,1.52c-.06,6.75-.99,13.34-2.76,19.62-2.52,9.32-6.78,18.01-12.65,25.83-4.37,5.85-9.57,11.07-15.49,15.49-13.43,10.1-29.41,15.42-46.21,15.42H16.84v16.72c0,4.81-2.17,9.37-5.91,12.4l-10.93,8.85v-89.38l.32-.24c4.85-3.59,9.89-6.46,15.42-8.76,21.02-8.74,44.38-6.83,66.95-4.98,21.26,1.74,43.23,3.53,63.02-3.64,5.68-2.06,10.83-4.67,15.73-7.99l1.26-.86Z"/>
  </g>
</svg>