<svg xmlns="http://www.w3.org/2000/svg" xmlns:xlink="http://www.w3.org/1999/xlink" width="985.02" height="189.78" viewBox="0 0 985.02 189.78">
  <defs>
    <linearGradient id="linear-gradient" y1="0.5" x2="1" y2="0.5" gradientUnits="objectBoundingBox">
      <stop offset="0" stop-color="#f2b138"/>
      <stop offset="0.33" stop-color="#f1ad37"/>
      <stop offset="0.64" stop-color="#f0a134"/>
      <stop offset="0.94" stop-color="#ef8e2f"/>
      <stop offset="1" stop-color="#ef8a2e"/>
    </linearGradient>
  </defs>
  <g id="Layer_1" data-name="Layer 1" transform="translate(0.01)">
    <g id="Group_2" data-name="Group 2" style="isolation: isolate">
      <path id="Path_15" data-name="Path 15" d="M271.66,49.51V65.93h-43.2V86.52h37.61v15.29H228.46v36.54H209.12V49.51Z" fill="#fff"/>
      <path id="Path_16" data-name="Path 16" d="M341.88,73.91v64.44H325.1v-9.16q-7.62,10.95-21.24,10.95-11.895,0-17.97-7.74-4.35-5.475-4.34-17.67V73.91h17.61v35.58a59.873,59.873,0,0,0,.36,7.91,10.212,10.212,0,0,0,1.37,3.99q2.73,4.35,9.46,4.34,8.385,0,12.08-7.2,1.845-3.51,1.84-12.67V73.91Z" fill="#fff"/>
      <path id="Path_17" data-name="Path 17" d="M374.25,73.91V82.9a24.468,24.468,0,0,1,21.48-10.77,24.99,24.99,0,0,1,11.01,2.35,17.7,17.7,0,0,1,7.5,6.52,19.9,19.9,0,0,1,2.71,6.78,53.052,53.052,0,0,1,.74,10.06v40.52H400.08V101.35q0-6.255-1.13-9.16a8,8,0,0,0-3.69-4.14,12.5,12.5,0,0,0-6.25-1.52,14.269,14.269,0,0,0-7.32,1.9,11.689,11.689,0,0,0-4.82,5.18q-1.785,3.69-1.79,11.42v33.32H357.47V73.91h16.78Z" fill="#fff"/>
      <path id="Path_18" data-name="Path 18" d="M494.74,49.51v88.84H477.96v-8.21q-6.315,9.99-19.52,10-14.28,0-22.25-10.53-6.96-9.165-6.96-23.74,0-16.365,8.75-25.65,7.62-8.1,19.52-8.09,13.275,0,19.64,9.76V49.52h17.61ZM462.31,85.93a13.437,13.437,0,0,0-11.78,5.95q-3.51,5.115-3.51,13.81,0,10.065,4.64,15.41a13.418,13.418,0,0,0,10.71,4.64q7.8,0,11.9-5.95,3.51-5.175,3.51-13.92,0-9.99-4.64-15.29a13.779,13.779,0,0,0-10.83-4.64Z" fill="#fff"/>
      <path id="Path_19" data-name="Path 19" d="M569.66,118.36a27.327,27.327,0,0,1-11.78,16.6,32.861,32.861,0,0,1-18.39,5.18q-15.885,0-25.05-10.47-7.92-9.045-7.91-23.15,0-15.945,10.35-25.82a30.833,30.833,0,0,1,22.02-8.51q15.345,0,24.16,11.13,7.62,9.645,7.62,24.75v2.68H524.5q.3,8.685,4.64,12.97,3.87,3.75,10.47,3.75a13.687,13.687,0,0,0,7.97-2.14,15.489,15.489,0,0,0,5.12-6.96h16.96ZM552.7,99.44q-.78-7.44-4.82-11.25a12.538,12.538,0,0,0-8.99-3.33,12.975,12.975,0,0,0-10.23,4.46,18.065,18.065,0,0,0-4.11,10.12H552.7Z" fill="#fff"/>
      <path id="Path_20" data-name="Path 20" d="M623.81,72.84v16.3a42.055,42.055,0,0,0-6.9-.77q-9.825,0-14.46,8.03-2.625,4.455-2.62,14.99v26.96H582.22V73.91H599v11.9q6.96-13.275,20.83-13.27a31.861,31.861,0,0,1,3.99.3Z" fill="#fff"/>
      <path id="Path_21" data-name="Path 21" d="M705.09,49.51v88.84H692.12l-31.66-47.9q-12.075-18.27-16.01-26.48.72,8.985.77,29.51l.06,44.87H634.03V49.51h12.73l33.14,50.58q9.99,15.24,14.76,24.28-.66-15.405-.71-30.41l-.12-44.45h11.25Z" fill="#fff"/>
      <path id="Path_22" data-name="Path 22" d="M779.89,129.84v8.27a22.183,22.183,0,0,1-7.44,1.31,8.9,8.9,0,0,1-6.75-2.5q-2.415-2.5-2.47-7.08-8.985,10.41-23.27,10.41-10.23,0-15.77-5.59-4.875-4.815-4.88-12.73,0-12.675,12.14-17.55a30.937,30.937,0,0,1,5.83-1.76c1.82-.34,6.49-.96,13.98-1.87q6.42-.78,8.87-2.62t2.44-5.95q0-11.25-14.52-11.25-8.1,0-11.84,3.57-3.27,3.09-3.99,9.64H721.87q.24-11.13,8.33-16.96,7.02-5.115,18.62-5.12,13.56,0,20.17,6.37a12.719,12.719,0,0,1,3.36,5.71,36.13,36.13,0,0,1,.98,9.52q0,13.215-.42,26.48-.06,2.5-.06,3.93c0,2.38.32,4.06.95,5.03a3.548,3.548,0,0,0,3.21,1.46,7.015,7.015,0,0,0,2.86-.71Zm-17.14-24.87a15.2,15.2,0,0,1-4.73,2.29,76.551,76.551,0,0,1-9.49,1.52c-6.23.79-10.53,1.81-12.91,3.03q-5.415,2.805-5.41,9.22a9.964,9.964,0,0,0,3.87,8.39,14.427,14.427,0,0,0,8.93,2.56,22.417,22.417,0,0,0,10.12-2.32,19.488,19.488,0,0,0,7.56-6.31,9.883,9.883,0,0,0,1.67-3.51,24.9,24.9,0,0,0,.42-5.3v-9.58Z" fill="#fff"/>
      <path id="Path_23" data-name="Path 23" d="M816.48,73.91V82.6H803.69v38.08q0,6.36,1.28,8.12c.85,1.17,2.81,1.76,5.86,1.76a22.237,22.237,0,0,0,5.65-.77v9.1a59.431,59.431,0,0,1-8.09.53q-10.29,0-13.45-5.06a11.9,11.9,0,0,1-1.55-5.15q-.3-3.12-.3-14.49V82.59H782.26V73.9h10.83V54.86h10.59V73.9h12.79Z" fill="#fff"/>
      <path id="Path_24" data-name="Path 24" d="M840.23,49.51V62.48H829.64V49.51Zm0,24.4v64.44H829.64V73.91h10.59Z" fill="#fff"/>
      <path id="Path_25" data-name="Path 25" d="M886.1,72.06q15.345,0,23.74,10.35,7.32,8.985,7.32,23.62,0,17.085-9.28,26.24-8.04,7.92-21.48,7.91-15.585,0-24.16-10.41-7.44-9.1-7.44-23.74,0-16.6,9.64-25.88,8.385-8.085,21.66-8.09Zm0,8.87q-9.99,0-15.59,7.68-4.875,6.72-4.88,17.44,0,12.615,6.25,19.4,5.415,5.9,14.4,5.89,9.99,0,15.35-7.68,4.7-6.72,4.7-17.67,0-12.315-6.19-19.16-5.355-5.9-14.04-5.89Z" fill="#fff"/>
      <path id="Path_26" data-name="Path 26" d="M941.5,73.91V83.97a34.17,34.17,0,0,1,5.24-6.19q6.84-5.775,17.08-5.77a24.579,24.579,0,0,1,11.25,2.47,16.369,16.369,0,0,1,7.26,6.93,19.118,19.118,0,0,1,2.11,6.04,56.98,56.98,0,0,1,.57,9.25v41.65H974.42v-37.9a67.617,67.617,0,0,0-.45-9.31,12.468,12.468,0,0,0-1.7-4.85q-3.51-5.355-11.72-5.36a18.465,18.465,0,0,0-9.79,2.62,15.715,15.715,0,0,0-6.34,7.14q-2.2,5-2.2,16.48v31.18H931.63V73.91h9.88Z" fill="#fff"/>
    </g>
    <g id="Group_3" data-name="Group 3">
      <path id="Path_27" data-name="Path 27" d="M162.7,0V48.23a70.879,70.879,0,0,1-15.44,9.38c-40.69,18.03-89.03-6.25-130.27,8.81a69.483,69.483,0,0,0-17,8.94,85.761,85.761,0,0,1,4.62-21.9A83.9,83.9,0,0,1,15.16,32.98a79.649,79.649,0,0,1,15.5-16.53A73.857,73.857,0,0,1,76.93,0Z" fill="#fff"/>
      <path id="Path_28" data-name="Path 28" d="M162.7,73.93l-.02,1.52a74.724,74.724,0,0,1-2.76,19.62,77.14,77.14,0,0,1-28.14,41.32,76.291,76.291,0,0,1-46.21,15.42H16.84v16.72a15.962,15.962,0,0,1-5.91,12.4L0,189.78V100.4l.32-.24A72.2,72.2,0,0,1,15.74,91.4c21.02-8.74,44.38-6.83,66.95-4.98,21.26,1.74,43.23,3.53,63.02-3.64a70.542,70.542,0,0,0,15.73-7.99l1.26-.86Z" fill="url(#linear-gradient)"/>
    </g>
  </g>
</svg>
